<?xml version="1.0" encoding="UTF-8"?>
<svg version="1.1" xmlns="http://www.w3.org/2000/svg" width="512" height="512">
<path d="M0 0 C2.3581543 1.04711914 2.3581543 1.04711914 4.82421875 2.53515625 C5.75669434 3.08937256 6.68916992 3.64358887 7.64990234 4.21459961 C9.15351318 5.1293103 9.15351318 5.1293103 10.6875 6.0625 C12.86018566 7.35759561 15.03338004 8.65183809 17.20703125 9.9453125 C18.32932129 10.61723633 19.45161133 11.28916016 20.60791016 11.98144531 C25.99827379 15.18912679 31.43638249 18.31257357 36.875 21.4375 C39.06001428 22.69640903 41.24490947 23.95552477 43.4296875 25.21484375 C45.05729004 26.15239502 45.05729004 26.15239502 46.71777344 27.10888672 C52.14659942 30.23680148 57.57319281 33.36858448 63 36.5 C65.16665583 37.75001879 67.3333225 39.00001878 69.5 40.25 C89 51.5 89 51.5 108.5 62.75 C109.5739502 63.36955566 110.64790039 63.98911133 111.75439453 64.62744141 C113.9065213 65.86911527 116.05854073 67.11097522 118.21044922 68.35302734 C123.25030977 71.26166823 128.29117492 74.16851898 133.33599854 77.06854248 C135.11749578 78.09275665 136.89864322 79.11757651 138.6796875 80.14257812 C140.91076625 81.42633375 143.14249573 82.70895939 145.375 83.99023438 C146.38820313 84.57353516 147.40140625 85.15683594 148.4453125 85.7578125 C149.40083008 86.30598633 150.35634766 86.85416016 151.34082031 87.41894531 C153.77014468 88.86333612 156.0921249 90.40578934 158.4296875 91.9921875 C160.88741813 93.53645894 161.69053497 94.00045443 164.66015625 93.99609375 C167.36558956 92.84436505 169.87939378 91.51363099 172.4375 90.0625 C183.10657854 84.63643677 194.49873433 83.70224373 206 87 C219.11615094 92.02501887 227.98601039 99.25935807 233.84765625 112.16796875 C238.05992978 122.52016641 238.72553223 134.03406888 234.97265625 144.69921875 C230.12342727 156.1698849 223.34479046 164.50813326 212 170 C210.6717841 170.35317335 209.33892855 170.6899045 208 171 C208.02350572 172.4859092 208.02350572 172.4859092 208.04748631 174.00183678 C208.42513251 198.12232648 208.70435122 222.24243229 208.88080692 246.36525536 C208.96841296 258.03119438 209.08780578 269.69517898 209.2824707 281.35986328 C209.45209336 291.5288294 209.5616285 301.69638027 209.59950441 311.86672175 C209.62164305 317.25116065 209.67351823 322.63155163 209.79741096 328.0146904 C209.91319884 333.08697402 209.94833309 338.15356348 209.92283058 343.22704315 C209.92749166 345.08404954 209.96111292 346.94125437 210.02649307 348.79711533 C210.40932272 360.22887757 210.40932272 360.22887757 208 365 C203.84542358 369.28908312 198.49283554 371.72120058 193.08189952 374.06662488 C190.09699426 375.40484331 187.36738348 377.04304273 184.56640625 378.73046875 C182.56553379 379.88355831 180.56422606 381.03589289 178.5625 382.1875 C176.31379049 383.4830528 174.06509292 384.77862632 171.81640625 386.07421875 C170.68734863 386.72438965 169.55829102 387.37456055 168.39501953 388.04443359 C162.9283002 391.19332054 157.46425113 394.34683264 152 397.5 C149.83334689 398.7500235 147.66668021 400.00002347 145.5 401.25 C144.4275 401.86875 143.355 402.4875 142.25 403.125 C106.50000003 423.74999998 106.50000003 423.74999998 103.24829102 425.62597656 C101.08731012 426.87270256 98.92634002 428.11944727 96.76538086 429.36621094 C91.26181149 432.54145883 85.75803968 435.71635495 80.25390625 438.890625 C79.14337891 439.5312085 78.03285156 440.17179199 76.88867188 440.83178711 C74.69626926 442.09615201 72.50356786 443.35999897 70.31054688 444.62329102 C65.26933721 447.52879483 60.23418434 450.44357174 55.21484375 453.38671875 C54.32917725 453.90459961 53.44351074 454.42248047 52.53100586 454.95605469 C50.88774342 455.91788708 49.24650284 456.88318523 47.60766602 457.85253906 C42.22318174 461 42.22318174 461 40 461 C40.04640625 462.01578125 40.0928125 463.0315625 40.140625 464.078125 C40.60064818 478.36149622 37.72152938 489.0321207 28 500 C17.40409703 510.04270322 5.88268114 512.49845734 -8.1484375 512.2734375 C-21.00073537 511.77088927 -29.59856313 505.7726739 -38.25 496.75 C-43.23699074 490.93682118 -47.1096518 483.69352159 -48 476 C-47.80277344 474.85789062 -47.60554687 473.71578125 -47.40234375 472.5390625 C-46.838825 467.79413994 -46.61493162 464.24476136 -49 460 C-55.4080229 454.20890749 -63.66652053 450.68307819 -71.34716797 446.85888672 C-77.04427265 443.99839451 -82.50587053 440.72796374 -88 437.5 C-90.16557777 436.24811448 -92.33224907 434.99811872 -94.5 433.75 C-107.5 426.25 -120.5 418.75 -133.5 411.25 C-134.57266113 410.63116943 -135.64532227 410.01233887 -136.75048828 409.37475586 C-138.91557071 408.12564482 -141.08060982 406.87645871 -143.24560547 405.62719727 C-148.68615706 402.48797691 -154.12747216 399.35009437 -159.5703125 396.21484375 C-170.39364167 389.97872075 -181.20821351 383.72808398 -192 377.4375 C-192.9605127 376.87796631 -193.92102539 376.31843262 -194.91064453 375.74194336 C-195.82700684 375.20706299 -196.74336914 374.67218262 -197.6875 374.12109375 C-198.47511719 373.6614624 -199.26273438 373.20183105 -200.07421875 372.72827148 C-201.03972656 372.15794189 -202.00523437 371.5876123 -203 371 C-203.80192717 370.72462371 -204.60385433 370.44924742 -205.43008232 370.16552639 C-208.66366167 368.80776812 -210.61565511 367.5965456 -213 365 C-214.55671757 358.90375946 -214.3235078 352.85947151 -214.22705078 346.60205078 C-214.23409466 344.69969144 -214.24553256 342.79734403 -214.2610321 340.89503479 C-214.29062396 335.73574544 -214.25875219 330.57844919 -214.21586847 325.41932154 C-214.18148152 320.02605411 -214.20358045 314.63302595 -214.21969604 309.23971558 C-214.24161888 299.02918807 -214.21271826 288.81946162 -214.165573 278.60904491 C-214.11436888 266.98392257 -214.11979866 255.35904276 -214.12999368 243.73383737 C-214.14969428 219.82229478 -214.09824737 195.91132828 -214 172 C-215.11604614 171.40687012 -215.11604614 171.40687012 -216.25463867 170.80175781 C-217.2366626 170.27420898 -218.21868652 169.74666016 -219.23046875 169.203125 C-220.68682739 168.42437012 -220.68682739 168.42437012 -222.17260742 167.62988281 C-232.3217725 161.77928044 -237.97530595 152.80312614 -242 142 C-244.84720649 130.23020981 -243.28409199 118.11137879 -237.64453125 107.43359375 C-232.34111521 99.03059408 -225.9684676 93.24247511 -217 89 C-216.35160156 88.690625 -215.70320313 88.38125 -215.03515625 88.0625 C-205.45497002 83.98749236 -194.92540968 84.37129886 -185 87 C-180.18848186 89.01321097 -175.48316412 91.31078842 -171.1628418 94.24975586 C-168.94876468 95.27580853 -168.94876468 95.27580853 -166.57177734 94.08813477 C-165.6689502 93.54471436 -164.76612305 93.00129395 -163.8359375 92.44140625 C-162.80984375 91.83554688 -161.78375 91.2296875 -160.7265625 90.60546875 C-159.62054688 89.93128906 -158.51453125 89.25710937 -157.375 88.5625 C-156.20934301 87.86809398 -155.04265776 87.1754114 -153.875 86.484375 C-151.4474448 85.04589274 -149.02450602 83.60005653 -146.60449219 82.14892578 C-141.11022797 78.86263518 -135.55231247 75.68684276 -130 72.5 C-127.83302937 71.25052702 -125.66636366 70.00052506 -123.5 68.75 C-110.5 61.25 -110.5 61.25 -107.24951172 59.37475586 C-105.08442929 58.12564482 -102.91939018 56.87645871 -100.75439453 55.62719727 C-95.31384294 52.48797691 -89.87252784 49.35009437 -84.4296875 46.21484375 C-73.00386852 39.63126611 -61.59593015 33.0191523 -50.21435547 26.359375 C-44.67691225 23.1256179 -39.124755 19.91931176 -33.5546875 16.7421875 C-32.92499054 16.38299728 -32.29529358 16.02380707 -31.64651489 15.6537323 C-28.57872881 13.90485931 -25.50935917 12.15882898 -22.43798828 10.41625977 C-21.32407715 9.78260498 -20.21016602 9.1489502 -19.0625 8.49609375 C-18.01191406 7.89909668 -16.96132812 7.30209961 -15.87890625 6.68701172 C-12.75724903 4.85775024 -9.74513556 2.90657428 -6.78125 0.83227539 C-4.33926419 -0.30872374 -2.67335073 -0.29566314 0 0 Z M-7.43359375 37.53515625 C-8.37895996 38.08937256 -9.32432617 38.64358887 -10.29833984 39.21459961 C-11.85222412 40.1293103 -11.85222412 40.1293103 -13.4375 41.0625 C-15.64681707 42.35731418 -17.85646349 43.65156651 -20.06640625 44.9453125 C-20.63838745 45.28036301 -21.21036865 45.61541351 -21.79968262 45.96061707 C-27.80974631 49.47898661 -33.84073035 52.96083198 -39.875 56.4375 C-40.95322021 57.05890869 -42.03144043 57.68031738 -43.14233398 58.32055664 C-45.33405108 59.58350004 -47.52586426 60.84627672 -49.71777344 62.10888672 C-55.14659942 65.23680148 -60.57319281 68.36858448 -66 71.5 C-68.16665583 72.75001879 -70.3333225 74.00001878 -72.5 75.25 C-73.5725 75.86875 -74.645 76.4875 -75.75 77.125 C-85.5 82.75 -85.5 82.75 -88.75048828 84.62524414 C-90.91557071 85.87435518 -93.08060982 87.12354129 -95.24560547 88.37280273 C-101.78132215 92.1439378 -108.31800559 95.91337706 -114.85791016 99.67724609 C-117.01906784 100.92432871 -119.1776477 102.17589036 -121.33349609 103.43212891 C-126.83128851 106.63140924 -132.35600549 109.74455621 -137.96875 112.73828125 C-139.08620605 113.34921631 -140.20366211 113.96015137 -141.35498047 114.58959961 C-143.48481706 115.75247067 -145.62934536 116.88895022 -147.78955078 117.99438477 C-150.50235072 119.49640131 -152.78505927 120.82883748 -155 123 C-155.86506373 126.15387817 -155.48326323 128.8045602 -155 132 C-156.39104331 145.91043313 -162.34862798 156.2370164 -172.77734375 165.359375 C-175.6766569 167.49946555 -178.87119042 169.21210881 -182 171 C-182 229.08 -182 287.16 -182 347 C-172.76 352.28 -163.52 357.56 -154 363 C-140.36759936 370.84506074 -126.75551317 378.72021777 -113.17871094 386.66064453 C-104.88947948 391.49987344 -96.55774957 396.26282533 -88.21859741 401.01519775 C-79.93307311 405.73819285 -71.67225235 410.50135592 -63.4375 415.3125 C-62.46458008 415.87912354 -61.49166016 416.44574707 -60.48925781 417.02954102 C-55.7828279 419.77363032 -51.09223315 422.53996951 -46.42578125 425.3515625 C-45.55058838 425.87322998 -44.67539551 426.39489746 -43.77368164 426.93237305 C-42.13782665 427.90799905 -40.50767762 428.89328242 -38.88452148 429.88989258 C-38.16466064 430.31681396 -37.4447998 430.74373535 -36.703125 431.18359375 C-36.08083008 431.56056396 -35.45853516 431.93753418 -34.81738281 432.32592773 C-32.48241325 433.19197435 -31.31473023 432.82753379 -29 432 C-27.40070325 431.21939087 -25.81811827 430.40399022 -24.25 429.5625 C-13.29465033 424.05297822 -1.97214881 423.28884058 9.875 426.6875 C14.5201072 428.25092004 18.31527169 430.15161274 22.12109375 433.2421875 C24.07073227 434.22514779 24.07073227 434.22514779 26.55859375 433.515625 C31.48129342 431.3476256 36.01135941 428.63112255 40.625 425.875 C42.78313461 424.60034343 44.94201956 423.3269566 47.1015625 422.0546875 C48.22981445 421.38920898 49.35806641 420.72373047 50.52050781 420.03808594 C55.72922437 416.97803362 60.98107186 413.99350105 66.23168945 411.00613403 C76.5461387 405.13741463 86.82353475 399.20870569 97.06689453 393.21655273 C107.5806503 387.068295 118.13329606 380.98802071 128.68701172 374.90869141 C134.2717109 371.69121328 139.85459417 368.47058857 145.4375 365.25 C146.90775635 364.40223999 146.90775635 364.40223999 148.40771484 363.53735352 C150.3801425 362.39968948 152.33114354 361.22402729 154.25836182 360.01135254 C157.02397501 358.38452522 159.65359989 357.4743841 162.7383728 356.6111908 C168.66626422 354.62902101 173.37798613 352.24360326 177 347 C180.45374983 335.32083292 179.26875124 322.38189152 178.92648482 310.34514642 C178.80721822 305.44227372 178.79651245 300.53915496 178.77400208 295.63505554 C178.71508324 286.36146535 178.55938012 277.09216124 178.36836177 267.82045382 C178.15554296 257.25994352 178.05141711 246.69922175 177.95614851 236.13709891 C177.75786326 214.42234552 177.42395851 192.71144331 177 171 C176.25669434 170.61110596 175.51338867 170.22221191 174.74755859 169.8215332 C173.76609863 169.29906006 172.78463867 168.77658691 171.7734375 168.23828125 C170.80325684 167.72563721 169.83307617 167.21299316 168.83349609 166.68481445 C161.31502327 162.21428361 156.64020165 155.82020506 153 148 C152.69191406 147.36449219 152.38382812 146.72898437 152.06640625 146.07421875 C149.3157349 139.7174041 148.59838461 132.37623763 149.22900391 125.50463867 C149.26182223 122.92947645 149.26182223 122.92947645 147.43774414 121.42773438 C146.70676514 120.98751953 145.97578613 120.54730469 145.22265625 120.09375 C144.39652832 119.5884375 143.57040039 119.083125 142.71923828 118.5625 C141.82188965 118.046875 140.92454102 117.53125 140 117 C139.10909668 116.484375 138.21819336 115.96875 137.30029297 115.4375 C134.35957275 113.7661591 131.40119466 112.13023022 128.4375 110.5 C119.92564082 105.77594016 111.46123888 100.98498361 103.0625 96.0625 C94.76612704 91.20075324 86.45656863 86.36373238 78.125 81.5625 C77.04484619 80.93996338 75.96469238 80.31742676 74.85180664 79.67602539 C72.66203666 78.41423174 70.47217645 77.15259466 68.28222656 75.89111328 C61.77782059 72.14348395 55.27624205 68.39095039 48.7746582 64.63842773 C43.22313708 61.43467538 37.66979203 58.23415423 32.11328125 55.0390625 C11.16091821 42.98335842 11.16091821 42.98335842 2.09692383 37.43603516 C-2.51943465 34.62271512 -2.80711505 34.81356686 -7.43359375 37.53515625 Z " fill="#000000" transform="translate(259,0)"/>
<path d="M0 0 C3.06121744 1.18905061 5.73867231 2.53869086 8.56933594 4.19604492 C9.58898437 4.78901367 10.60863281 5.38198242 11.65917969 5.99291992 C12.7484375 6.63358398 13.83769531 7.27424805 14.95996094 7.93432617 C16.11717066 8.60939256 17.27472951 9.28386079 18.43261719 9.95776367 C20.83566676 11.35698422 23.23720013 12.75875553 25.63769531 14.16235352 C31.14782978 17.38132025 36.68009766 20.56191825 42.20996094 23.74682617 C44.36238301 24.98887796 46.51472639 26.23106611 48.66699219 27.47338867 C53.14151263 30.05507586 57.61836951 32.63265631 62.09667969 35.20776367 C67.52655477 38.33087963 72.95136105 41.46258794 78.37109375 44.60327148 C80.17364626 45.64685451 81.97753095 46.68814252 83.78320312 47.72631836 C85.95150229 48.97446073 88.11306004 50.23337248 90.27246094 51.49682617 C91.18354614 52.01672119 91.18354614 52.01672119 92.11303711 52.54711914 C96.09516653 54.90244296 96.09516653 54.90244296 97.20996094 58.24682617 C96.18902344 58.8062793 95.16808594 59.36573242 94.11621094 59.94213867 C84.21193891 65.39436152 74.41284228 71.00939413 64.65673828 76.72216797 C57.2315726 81.06992822 49.78995857 85.38792139 42.33496094 89.68432617 C41.27204834 90.29711426 40.20913574 90.90990234 39.11401367 91.54125977 C33.98903058 94.49505825 28.86283619 97.4467483 23.73596191 100.39726257 C21.32778619 101.78342355 18.92005395 103.17035367 16.51239014 104.55740356 C14.8073786 105.53921915 13.10169424 106.51986602 11.39599609 107.50048828 C10.36651855 108.0935376 9.33704102 108.68658691 8.27636719 109.29760742 C6.91427124 110.08131714 6.91427124 110.08131714 5.5246582 110.88085938 C3.71869893 111.94660583 1.95474965 113.0836337 0.20996094 114.24682617 C-3.76932339 113.9094377 -6.70932382 112.38868952 -10.14941406 110.43823242 C-11.17349365 109.86145752 -12.19757324 109.28468262 -13.25268555 108.69042969 C-14.33751221 108.06966553 -15.42233887 107.44890137 -16.54003906 106.80932617 C-17.66676025 106.17115967 -18.79348145 105.53299316 -19.9543457 104.87548828 C-27.43207497 100.62836882 -34.86218484 96.30513107 -42.25878906 91.91870117 C-51.21928276 86.61571808 -60.26660274 81.45957319 -69.28955078 76.26391602 C-72.91774207 74.17396644 -76.54348242 72.07978538 -80.16894531 69.98510742 C-81.37344721 69.28937665 -82.57795558 68.59365709 -83.7824707 67.89794922 C-86.0853194 66.56786072 -88.38783709 65.2372048 -90.69018555 63.90625 C-91.72344971 63.30965576 -92.75671387 62.71306152 -93.82128906 62.09838867 C-94.73458984 61.57067871 -95.64789063 61.04296875 -96.58886719 60.49926758 C-97.96992598 59.71346106 -99.36882401 58.9574337 -100.79003906 58.24682617 C-99.31018878 54.33545341 -97.34753006 53.10387214 -93.72363281 51.14526367 C-92.17301147 50.29460327 -92.17301147 50.29460327 -90.59106445 49.42675781 C-89.48110107 48.83113037 -88.3711377 48.23550293 -87.22753906 47.62182617 C-84.92208541 46.35890085 -82.61739833 45.09457516 -80.31347656 43.82885742 C-79.18780273 43.21349121 -78.06212891 42.598125 -76.90234375 41.96411133 C-73.00907426 39.81591102 -69.17176259 37.58585447 -65.35253906 35.30932617 C-55.05496077 29.19664911 -44.66802281 23.23955819 -34.29052734 17.26391602 C-30.66233606 15.17396644 -27.0365957 13.07978538 -23.41113281 10.98510742 C-22.20663092 10.28937665 -21.00212254 9.59365709 -19.79760742 8.89794922 C-17.49475873 7.56786072 -15.19224104 6.2372048 -12.88989258 4.90625 C-11.85662842 4.30965576 -10.82336426 3.71306152 -9.75878906 3.09838867 C-8.38883789 2.30682373 -8.38883789 2.30682373 -6.99121094 1.49926758 C-2.95450496 -0.79757156 -2.95450496 -0.79757156 0 0 Z " fill="#000000" transform="translate(257.7900390625,111.753173828125)"/>
<path d="M0 0 C1.88619268 0.93308191 3.77121634 1.86852714 5.65576172 2.80493164 C7.23053787 3.58592979 7.23053787 3.58592979 8.83712769 4.38270569 C13.71409749 6.87648183 18.41477917 9.64490279 23.125 12.4375 C25.23402286 13.67768236 27.34341061 14.91724438 29.453125 16.15625 C30.53142578 16.79046875 31.60972656 17.4246875 32.72070312 18.078125 C38.08994792 21.22484142 43.48211935 24.33152023 48.875 27.4375 C49.94250488 28.05286621 51.01000977 28.66823242 52.10986328 29.30224609 C56.57803468 31.87758997 61.04703429 34.45149366 65.51660156 37.02441406 C67.87346291 38.38115258 70.23006924 39.73833221 72.58642578 41.09594727 C74.79006869 42.36546119 76.99413955 43.63423268 79.19873047 44.90209961 C97.37443512 55.37443512 97.37443512 55.37443512 99 57 C99.09571971 58.49283798 99.12188227 59.99019655 99.12025452 61.48609924 C99.12231651 62.93960281 99.12231651 62.93960281 99.12442017 64.42247009 C99.11902725 66.03007957 99.11902725 66.03007957 99.11352539 67.67016602 C99.11367142 68.79197266 99.11381744 69.9137793 99.1139679 71.06958008 C99.1132682 74.79770811 99.10547315 78.52578689 99.09765625 82.25390625 C99.09579227 84.83080518 99.09436827 87.40770447 99.09336853 89.98460388 C99.08993342 96.08675115 99.0820426 102.18887794 99.07201904 108.29101747 C99.06085689 115.2364925 99.0553472 122.18196835 99.05032361 129.12745011 C99.03985996 143.41830966 99.02226115 157.7091542 99 172 C95.46935789 170.61572638 92.19644021 169.09020174 88.88671875 167.234375 C87.89873291 166.68144775 86.91074707 166.12852051 85.89282227 165.55883789 C84.83506592 164.96192139 83.77730957 164.36500488 82.6875 163.75 C81.57882568 163.12665771 80.47015137 162.50331543 79.32788086 161.86108398 C69.86973396 156.52642371 60.48504901 151.06949806 51.1171875 145.578125 C43.66407671 141.21097365 36.17908919 136.89947663 28.69360352 132.58813477 C26.70626941 131.44337199 24.73300246 130.27381434 22.77513123 129.07936096 C20.01377769 127.46757902 17.23987371 126.28614148 14.25476074 125.14633179 C1.58860723 119.85510049 1.58860723 119.85510049 -1.0633297 113.41959953 C-2.72045289 105.55175688 -2.17739587 97.53265012 -1.85546875 89.55078125 C-1.81999494 86.96585496 -1.79296627 84.3808002 -1.77400208 81.79570007 C-1.70909036 75.70813394 -1.55974275 69.62813595 -1.36836177 63.54340953 C-1.15510152 56.61072648 -1.05131496 49.67770861 -0.95614851 42.74255621 C-0.75816651 28.49152292 -0.42455026 14.24599539 0 0 Z " fill="#000000" transform="translate(142,194)"/>
<path d="M0 0 C0 38.28 0 76.56 0 116 C-19.5 127.25 -19.5 127.25 -39 138.5 C-41.13597656 139.73234375 -43.27195312 140.9646875 -45.47265625 142.234375 C-49.89690769 144.78685335 -54.32141668 147.33888455 -58.74609375 149.890625 C-59.85662109 150.5312085 -60.96714844 151.17179199 -62.11132812 151.83178711 C-64.30373074 153.09615201 -66.49643214 154.35999897 -68.68945312 155.62329102 C-73.73066279 158.52879483 -78.76581566 161.44357174 -83.78515625 164.38671875 C-84.67082275 164.90459961 -85.55648926 165.42248047 -86.46899414 165.95605469 C-88.11225658 166.91788708 -89.75349716 167.88318523 -91.39233398 168.85253906 C-96.77681826 172 -96.77681826 172 -99 172 C-99.21039112 157.10983807 -99.36902108 142.21979143 -99.46630955 127.32845879 C-99.51268703 120.41377913 -99.575893 113.50002378 -99.67895508 106.5859375 C-99.7783617 99.91389383 -99.8305506 93.24300875 -99.85389519 86.57019424 C-99.87053162 84.02394617 -99.90301982 81.47775099 -99.95157051 78.93191147 C-100.01687218 75.36604848 -100.02590393 71.80415719 -100.02172852 68.23779297 C-100.054086 67.18402969 -100.08644348 66.13026642 -100.11978149 65.04457092 C-100.03094987 58.03771899 -100.03094987 58.03771899 -97.06735039 55.0546608 C-94.77003017 53.49820881 -92.4885314 52.22261355 -90 51 C-88.6725969 50.24515576 -87.3477793 49.48571724 -86.02734375 48.71875 C-84.66571265 47.97613299 -83.30235109 47.23668227 -81.9375 46.5 C-74.76524064 42.57092822 -67.67905688 38.51231933 -60.625 34.375 C-50.50061448 28.44077629 -40.32819872 22.59624809 -30.13208008 16.78662109 C-22.20212379 12.26689892 -14.29333056 7.71247662 -6.41870117 3.09692383 C-1.10753412 0 -1.10753412 0 0 0 Z " fill="#000000" transform="translate(370,194)"/>
</svg>
