<svg width="67" height="74" viewBox="0 0 67 74" fill="none" xmlns="http://www.w3.org/2000/svg">
<path d="M55.5862 18.6068L43.3166 6.33726C37.9026 0.923252 29.1248 0.923247 23.7108 6.33725L11.4412 18.6068C-0.749152 30.7972 -0.749156 50.5616 11.4412 62.7519C23.6315 74.9422 43.3959 74.9422 55.5862 62.7519C67.7765 50.5616 67.7765 30.7972 55.5862 18.6068Z" fill="white" stroke="#1E1E1E" stroke-width="3.15"/>
<path fill-rule="evenodd" clip-rule="evenodd" d="M36.0582 16.2699C34.6095 14.9283 32.3721 14.9283 30.9235 16.2699L19.6586 26.7031C19.0998 27.2206 18.7105 27.895 18.5417 28.6377L15.1387 43.61C14.9991 44.2242 15.0179 44.8397 15.1695 45.412C15.176 45.8459 15.2584 46.2878 15.4261 46.7208L17.8481 52.9742C18.1714 53.809 18.7806 54.5018 19.5671 54.9293L31.6881 61.517C32.8132 62.1285 34.1714 62.1285 35.2965 61.517L47.4175 54.9293C48.204 54.5018 48.8132 53.809 49.1365 52.9742L51.5585 46.7208C51.7278 46.2839 51.8101 45.8379 51.8153 45.4001C51.964 44.8312 51.9816 44.2199 51.843 43.61L48.44 28.6377C48.2712 27.895 47.8819 27.2206 47.3231 26.7031L36.0582 16.2699Z" fill="#1E1E1E"/>
<ellipse cx="2.03372" cy="3.66774" rx="2.03372" ry="3.66774" transform="matrix(-0.73809 0.674702 0.674702 0.73809 37.5538 22.2969)" fill="white"/>
<ellipse cx="1.32996" cy="2.39853" rx="1.32996" ry="2.39853" transform="matrix(-0.73809 0.674702 0.674702 0.73809 42.8018 28.9453)" fill="white"/>
</svg>
